<svg style="dispay: none;"
  xmlns="http://www.w3.org/2000/svg">
  <symbol id="twitter" viewBox="0 0 512 512">
    <g>
      <path d="M512,97.248c-19.04,8.352-39.328,13.888-60.48,16.576c21.76-12.992,38.368-33.408,46.176-58.016
			c-20.288,12.096-42.688,20.64-66.56,25.408C411.872,60.704,384.416,48,354.464,48c-58.112,0-104.896,47.168-104.896,104.992
			c0,8.32,0.704,16.32,2.432,23.936c-87.264-4.256-164.48-46.08-216.352-109.792c-9.056,15.712-14.368,33.696-14.368,53.056
			c0,36.352,18.72,68.576,46.624,87.232c-16.864-0.32-33.408-5.216-47.424-12.928c0,0.32,0,0.736,0,1.152
			c0,51.008,36.384,93.376,84.096,103.136c-8.544,2.336-17.856,3.456-27.52,3.456c-6.72,0-13.504-0.384-19.872-1.792
			c13.6,41.568,52.192,72.128,98.08,73.12c-35.712,27.936-81.056,44.768-130.144,44.768c-8.608,0-16.864-0.384-25.12-1.44
			C46.496,446.88,101.6,464,161.024,464c193.152,0,298.752-160,298.752-298.688c0-4.64-0.16-9.12-0.384-13.568
			C480.224,136.96,497.728,118.496,512,97.248z"/>
    </g>
  </symbol>
  <symbol id="facebook" viewBox="0 0 24 24">
    <g>
      <path d="m15.997 3.985h2.191v-3.816c-.378-.052-1.678-.169-3.192-.169-3.159 0-5.323 1.987-5.323 5.639v3.361h-3.486v4.266h3.486v10.734h4.274v-10.733h3.345l.531-4.266h-3.877v-2.939c.001-1.233.333-2.077 2.051-2.077z"/>
    </g>
  </symbol>
  <symbol id="google-plus" viewBox="0 0 96.669 96.669">
    <g>
      <path d="M50.91,55.189l-4.533-3.522c-1.38-1.144-3.27-2.656-3.27-5.422c0-2.778,1.889-4.544,3.527-6.18
			c5.279-4.157,10.557-8.581,10.557-17.903c0-9.586-6.031-14.629-8.923-17.022h7.795L64.244,0H39.459
			C32.658,0,22.856,1.608,15.68,7.533c-5.408,4.666-8.046,11.099-8.046,16.892c0,9.831,7.548,19.798,20.88,19.798
			c1.259,0,2.636-0.124,4.022-0.252c-0.623,1.515-1.252,2.777-1.252,4.917c0,3.905,2.006,6.299,3.774,8.567
			c-5.663,0.39-16.237,1.018-24.033,5.809c-7.424,4.415-9.684,10.84-9.684,15.377c0,9.334,8.8,18.028,27.045,18.028
			c21.636,0,33.089-11.971,33.089-23.823C61.477,64.139,56.447,59.854,50.91,55.189z M34.431,40.691
			c-10.824,0-15.727-13.992-15.727-22.434c0-3.288,0.623-6.682,2.763-9.333C23.486,6.4,27,4.762,30.281,4.762
			c10.434,0,15.846,14.118,15.846,23.197c0,2.271-0.251,6.296-3.144,9.207C40.96,39.187,37.574,40.691,34.431,40.691z
			 M34.555,91.387c-13.46,0-22.139-6.438-22.139-15.392c0-8.949,8.048-11.978,10.816-12.979c5.281-1.777,12.076-2.024,13.21-2.024
			c1.258,0,1.887,0,2.889,0.126c9.568,6.81,13.721,10.203,13.721,16.65C53.053,85.573,46.635,91.387,34.555,91.387z"/>
      <polygon points="82.679,40.499 82.679,27.894 76.455,27.894 76.455,40.499 63.869,40.499 63.869,46.793 76.455,46.793 
			76.455,59.477 82.679,59.477 82.679,46.793 95.328,46.793 95.328,40.499 		"/>
    </g>
  </symbol>
  <symbol id="dribbble" viewBox="0 0 24 24">
    <g>
      <path d="m16.354 23.17c.02-.006.039-.014.059-.021 12.215-4.853 8.836-23.149-4.413-23.149-6.649 0-12 5.42-12 12 0 8.327 8.434 14.269 16.354 11.17zm-11.073-3.111c.852-1.432 3.609-5.472 8.315-6.866.984 2.509 1.674 5.436 1.742 8.755-3.566 1.199-7.327.392-10.057-1.889zm11.532 1.263c-.131-3.189-.782-6.017-1.71-8.467 2.082-.325 4.492-.108 7.225.987-.581 3.261-2.666 6.002-5.515 7.48zm5.672-9.031c-3.01-1.131-5.663-1.272-7.959-.834-.355-.8-.728-1.569-1.123-2.277 3.523-1.407 5.605-3.122 6.537-4.03 1.645 1.904 2.622 4.369 2.545 7.141zm-3.61-8.209c-.848.807-2.845 2.437-6.26 3.77-1.674-2.648-3.464-4.516-4.598-5.562 3.628-1.494 7.812-.856 10.858 1.792zm-12.292-1.059c.856.753 2.735 2.561 4.548 5.357-2.49.802-5.612 1.391-9.409 1.474.604-2.894 2.408-5.346 4.861-6.831zm-5.051 8.337c4.25-.069 7.69-.74 10.409-1.648.376.659.733 1.377 1.076 2.123-4.735 1.508-7.694 5.401-8.827 7.159-1.828-2.04-2.836-4.702-2.658-7.634z"/>
    </g>
  </symbol>
  <symbol id="eye" viewBox="0 0 512 512">
    <g>
      <path d="m490.007 217.504-69.27-43.111c-48.764-30.351-105.73-46.393-164.737-46.393s-115.973 16.042-164.737 46.393l-69.27 43.111c-13.771 8.571-21.993 22.962-21.993 38.496s8.222 29.925 21.993 38.496l69.27 43.111c48.764 30.351 105.73 46.393 164.737 46.393s115.973-16.042 164.737-46.393l69.271-43.111c13.77-8.571 21.992-22.962 21.992-38.496s-8.222-29.925-21.993-38.496zm-234.007 118.496c-44.112 0-80-35.888-80-80s35.888-80 80-80 80 35.888 80 80-35.888 80-80 80zm-217.098-68.672c-4.386-2.73-6.902-6.859-6.902-11.328s2.516-8.598 6.901-11.328l69.27-43.111c23.989-14.93 50.218-25.8 77.467-32.629-25.38 20.549-41.638 51.943-41.638 87.068s16.258 66.519 41.638 87.069c-27.249-6.829-53.478-17.699-77.467-32.629zm434.197 0-69.27 43.111c-23.989 14.93-50.217 25.8-77.467 32.629 25.38-20.549 41.638-51.943 41.638-87.068s-16.258-66.519-41.638-87.069c27.249 6.829 53.478 17.699 77.467 32.629l69.269 43.111c4.386 2.73 6.902 6.86 6.902 11.329s-2.516 8.599-6.901 11.328z"/>
      <circle cx="256" cy="256" r="32"/>
    </g>
  </symbol>
  <symbol id="clock" viewBox="0 0 443.294 443.294">
    <g>
      <path d="m221.647 0c-122.214 0-221.647 99.433-221.647 221.647s99.433 221.647 221.647 221.647 221.647-99.433 221.647-221.647-99.433-221.647-221.647-221.647zm0 415.588c-106.941 0-193.941-87-193.941-193.941s87-193.941 193.941-193.941 193.941 87 193.941 193.941-87 193.941-193.941 193.941z"/>
      <path d="m235.5 83.118h-27.706v144.265l87.176 87.176 19.589-19.589-79.059-79.059z"/>
    </g>
  </symbol>
  <symbol id="group" viewBox="0 0 505.4 505.4">
    <g>
      <path d="M437.1,233.45c14.8-10.4,24.6-27.7,24.6-47.2c0-31.9-25.8-57.7-57.7-57.7c-31.9,0-57.7,25.8-57.7,57.7
			c0,19.5,9.7,36.8,24.6,47.2c-12.7,4.4-24.3,11.2-34.1,20c-13.5-11.5-29.4-20.3-46.8-25.5c21.1-12.8,35.3-36.1,35.3-62.6
			c0-40.4-32.7-73.1-73.1-73.1c-40.4,0-73.1,32.8-73.1,73.1c0,26.5,14.1,49.8,35.3,62.6c-17.2,5.2-32.9,13.9-46.3,25.2
			c-9.8-8.6-21.2-15.3-33.7-19.6c14.8-10.4,24.6-27.7,24.6-47.2c0-31.9-25.8-57.7-57.7-57.7s-57.7,25.8-57.7,57.7
			c0,19.5,9.7,36.8,24.6,47.2C28.5,247.25,0,284.95,0,329.25v6.6c0,0.2,0.2,0.4,0.4,0.4h122.3c-0.7,5.5-1.1,11.2-1.1,16.9v6.8
			c0,29.4,23.8,53.2,53.2,53.2h155c29.4,0,53.2-23.8,53.2-53.2v-6.8c0-5.7-0.4-11.4-1.1-16.9H505c0.2,0,0.4-0.2,0.4-0.4v-6.6
			C505.2,284.85,476.8,247.15,437.1,233.45z M362.3,186.15c0-23,18.7-41.7,41.7-41.7s41.7,18.7,41.7,41.7
			c0,22.7-18.3,41.2-40.9,41.7c-0.3,0-0.5,0-0.8,0s-0.5,0-0.8,0C380.5,227.45,362.3,208.95,362.3,186.15z M194.9,165.35
			c0-31.5,25.6-57.1,57.1-57.1s57.1,25.6,57.1,57.1c0,30.4-23.9,55.3-53.8,57c-1.1,0-2.2,0-3.3,0c-1.1,0-2.2,0-3.3,0
			C218.8,220.65,194.9,195.75,194.9,165.35z M59.3,186.15c0-23,18.7-41.7,41.7-41.7s41.7,18.7,41.7,41.7c0,22.7-18.3,41.2-40.9,41.7
			c-0.3,0-0.5,0-0.8,0s-0.5,0-0.8,0C77.6,227.45,59.3,208.95,59.3,186.15z M125.5,320.15H16.2c4.5-42.6,40.5-76,84.2-76.3
			c0.2,0,0.4,0,0.6,0s0.4,0,0.6,0c20.8,0.1,39.8,7.8,54.5,20.3C141.7,279.75,131,298.95,125.5,320.15z M366.8,359.95
			c0,20.5-16.7,37.2-37.2,37.2h-155c-20.5,0-37.2-16.7-37.2-37.2v-6.8c0-62.1,49.6-112.9,111.3-114.7c1.1,0.1,2.3,0.1,3.4,0.1
			s2.3,0,3.4-0.1c61.7,1.8,111.3,52.6,111.3,114.7V359.95z M378.7,320.15c-5.5-21.1-16-40-30.3-55.6c14.8-12.8,34-20.5,55-20.7
			c0.2,0,0.4,0,0.6,0s0.4,0,0.6,0c43.7,0.3,79.7,33.7,84.2,76.3H378.7z"/>
    </g>
  </symbol>
  <symbol id="start-button" viewBox="0 0 512 512">
    <g>
      <path d="m511.4 38.222c-1.109-20.338-17.284-36.511-37.622-37.621-41.038-2.242-121.342-.061-198.13 39.656-39.145 20.248-80.545 54.577-113.584 94.185-.407.488-.803.979-1.207 1.468l-74.98 5.792c-12.342.954-23.335 7.423-30.161 17.747l-51.154 77.372c-5.177 7.83-6 17.629-2.203 26.212 3.798 8.584 11.602 14.566 20.877 16.003l63.171 9.784c-.223 1.228-.447 2.455-.652 3.683-2.103 12.58 2.065 25.514 11.151 34.599l87.992 87.993c7.533 7.533 17.712 11.686 28.142 11.686 2.148 0 4.308-.177 6.458-.536 1.228-.205 2.455-.429 3.683-.652l9.784 63.172c1.437 9.275 7.419 17.08 16.001 20.877 3.571 1.58 7.35 2.36 11.112 2.36 5.283-.001 10.529-1.539 15.101-4.562l77.372-51.155c10.325-6.827 16.793-17.82 17.745-30.161l5.792-74.979c.489-.404.981-.8 1.469-1.207 39.609-33.039 73.939-74.439 94.186-113.585 39.719-76.791 41.896-157.096 39.657-198.131zm-175.394 393.037-74.011 48.933-9.536-61.565c31.28-9.197 62.223-23.927 91.702-43.66l-3.773 48.845c-.235 3.047-1.833 5.762-4.382 7.447zm-129.895-37.377-87.993-87.993c-2.245-2.246-3.283-5.401-2.774-8.44 2.616-15.643 6.681-30.534 11.713-44.562l132.028 132.028c-16.848 6.035-31.939 9.635-44.534 11.741-3.044.506-6.195-.529-8.44-2.774zm-117.923-222.269 48.844-3.773c-19.734 29.479-34.464 60.422-43.661 91.702l-61.564-9.535 48.934-74.012c1.686-2.55 4.401-4.147 7.447-4.382zm270.155 155.286c-24.233 20.213-47.756 34.833-69.438 45.412l-149.221-149.221c13.858-28.304 30.771-51.873 45.417-69.431 30.575-36.655 68.602-68.276 104.331-86.756 70.474-36.453 144.725-38.416 182.713-36.348 5.028.274 9.027 4.273 9.301 9.302 2.071 37.988.104 112.238-36.349 182.713-18.479 35.728-50.1 73.754-86.754 104.329z"/>
      <path d="m350.721 236.243c19.202-.002 38.412-7.312 53.031-21.931 14.166-14.165 21.966-32.999 21.966-53.031s-7.801-38.866-21.966-53.031c-29.242-29.243-76.822-29.241-106.062 0-14.166 14.165-21.967 32.999-21.967 53.031s7.802 38.866 21.967 53.031c14.622 14.622 33.822 21.933 53.031 21.931zm-31.82-106.781c8.772-8.773 20.295-13.159 31.818-13.159 11.524 0 23.047 4.386 31.819 13.159 8.499 8.499 13.179 19.799 13.179 31.818s-4.68 23.32-13.179 31.819c-17.544 17.545-46.093 17.544-63.638 0-8.499-8.499-13.18-19.799-13.18-31.818s4.682-23.32 13.181-31.819z"/>
      <path d="m15.301 421.938c3.839 0 7.678-1.464 10.606-4.394l48.973-48.973c5.858-5.858 5.858-15.355 0-21.213-5.857-5.858-15.355-5.858-21.213 0l-48.972 48.973c-5.858 5.858-5.858 15.355 0 21.213 2.928 2.929 6.767 4.394 10.606 4.394z"/>
      <path d="m119.761 392.239c-5.857-5.858-15.355-5.858-21.213 0l-94.154 94.155c-5.858 5.858-5.858 15.355 0 21.213 2.929 2.929 6.767 4.393 10.606 4.393s7.678-1.464 10.606-4.394l94.154-94.154c5.859-5.858 5.859-15.355.001-21.213z"/>
      <path d="m143.429 437.12-48.973 48.973c-5.858 5.858-5.858 15.355 0 21.213 2.929 2.929 6.768 4.394 10.606 4.394s7.678-1.464 10.606-4.394l48.973-48.973c5.858-5.858 5.858-15.355 0-21.213-5.857-5.858-15.355-5.858-21.212 0z"/>
    </g>
  </symbol>
  <symbol id="cup" viewBox="0 0 512 512">
    <g>
      <polygon points="222.25,172.143 214.401,217 255.5,195.821 296.599,217 288.75,172.143 322,140.374 276.05,133.829 255.5,93.016 
				234.95,133.829 189,140.374 			"/>
      <path d="M418.913,39C418.977,32.563,419,26.221,419,20V0H91v20c0,6.221,0.023,12.563,0.087,19H0v20
				c0,51.185,13.454,94.431,41.131,132.212c23.498,32.075,53.051,54.588,79.125,74.45c16.226,12.36,30.689,23.394,40.918,34.548
				c20.079,26.582,44.855,49.663,73.826,68.778V402h-10c-49.626,0-90,40.374-90,90v20h240v-20c0-49.626-40.374-90-90-90h-10v-33.012
				c28.919-19.081,53.66-42.114,73.72-68.636c10.331-11.24,25.087-22.366,41.65-34.838c26.354-19.844,56.224-42.336,79.987-74.374
				C498.379,153.362,512,110.139,512,59V39H418.913z M40.86,79h51.338c1.935,39.112,6.886,80.589,19.317,121.626
				c0.987,3.258,2.028,6.476,3.096,9.674C78.983,180.355,46.493,142.702,40.86,79z M285,442c20.464,0,38.095,12.355,45.825,30
				h-151.65c7.73-17.645,25.361-30,45.825-30H285z M318.929,273.687c-3.831,4.189-7.347,8.507-10.435,13.02l0.082,0.056
				c-14.644,17.261-32.291,33.232-53.576,47.498c-21.285-14.266-38.932-30.236-53.576-47.499l0.082-0.056
				c-3.131-4.576-6.69-8.952-10.567-13.197C140.933,205.571,132.174,120.385,131.122,40h247.756
				C377.825,120.456,369.05,205.719,318.929,273.687z M395.078,211.226c1.18-3.5,2.324-7.028,3.406-10.6
				c12.432-41.037,17.383-82.514,19.317-121.626h53.323C465.334,143.352,431.67,181.106,395.078,211.226z"/>
    </g>
  </symbol>
  <symbol id="forrst" viewBox="0 0 291.146 291.146">
    <g>
      <path id="XMLID_515_" d="M269.698,290.033l-64.215-150.006L145.55,0L81.706,149.22L21.45,290.032
	c-0.207,0.48-0.192,0.799-0.133,0.887c0.059,0.088,0.344,0.227,0.867,0.227h94.65c1.379,0,2.5-1.122,2.5-2.5v-52.834
	c0-2.018-1.393-5.054-2.92-6.369L99.64,214.989c-2.918-2.515-4.104-6.917-2.701-10.022c0.93-2.055,2.818-3.282,5.053-3.282
	c1.539,0,3.066,0.578,4.42,1.671l12.924,10.43v-39.04c0-4.135,3.363-7.5,7.5-7.5h27.17c4.135,0,7.5,3.365,7.5,7.5v21.351
	c0,0.494,0.117,0.731,0.158,0.775c0.109-0.021,0.344-0.041,0.723-0.227l16.541-8.144c1.059-0.521,2.229-0.796,3.387-0.796
	c2.822,0,5.281,1.539,6.418,4.018c1.625,3.539-0.021,7.914-3.672,9.753l-20.465,10.302c-1.617,0.814-3.09,3.204-3.09,5.015v13.811
	c0,0.486,0.113,0.724,0.152,0.768c0.086-0.03,0.318-0.051,0.699-0.241l36.566-18.307c1.064-0.533,2.246-0.815,3.414-0.815
	c2.809,0,5.252,1.54,6.379,4.02c1.607,3.542-0.043,7.922-3.682,9.763l-40.439,20.47c-1.617,0.819-3.09,3.215-3.09,5.028v37.358
	c0,1.378,1.121,2.5,2.5,2.5h104.959c0.522,0,0.809-0.14,0.865-0.227C269.888,290.832,269.903,290.514,269.698,290.033z"/>
    </g>
  </symbol>
  <symbol id="behance" viewBox="0 0 511.958 511.958">
    <g>
      <path d="M210.624,240.619c10.624-5.344,18.656-11.296,24.16-17.728c9.792-11.584,14.624-26.944,14.624-45.984
				c0-18.528-4.832-34.368-14.496-47.648c-16.128-21.632-43.424-32.704-82.016-33.28H0v312.096h142.56
				c16.064,0,30.944-1.376,44.704-4.192c13.76-2.848,25.664-8.064,35.744-15.68c8.96-6.624,16.448-14.848,22.4-24.544
				c9.408-14.656,14.112-31.264,14.112-49.76c0-17.92-4.128-33.184-12.32-45.728C238.912,255.627,226.752,246.443,210.624,240.619z
				 M63.072,150.187h68.864c15.136,0,27.616,1.632,37.408,4.864c11.328,4.704,16.992,14.272,16.992,28.864
				c0,13.088-4.32,22.24-12.864,27.392c-8.608,5.152-19.776,7.744-33.472,7.744H63.072V150.187z M171.968,348.427
				c-7.616,3.68-18.336,5.504-32.064,5.504H63.072v-83.232h77.888c13.568,0.096,24.128,1.888,31.68,5.248
				c13.44,6.08,20.128,17.216,20.128,33.504C192.768,328.651,185.856,341.579,171.968,348.427z"/>
      <rect x="327.168" y="110.539" width="135.584" height="38.848"/>
      <path d="M509.856,263.851c-2.816-18.08-9.024-33.984-18.688-47.712c-10.592-15.552-24.032-26.944-40.384-34.144
				c-16.288-7.232-34.624-10.848-55.04-10.816c-34.272,0-62.112,10.72-83.648,32c-21.472,21.344-32.224,52.032-32.224,92.032
				c0,42.656,11.872,73.472,35.744,92.384c23.776,18.944,51.232,28.384,82.4,28.384c37.728,0,67.072-11.232,88.032-33.632
				c13.408-14.144,20.992-28.064,22.656-41.728H446.24c-3.616,6.752-7.808,12.032-12.608,15.872
				c-8.704,7.04-20.032,10.56-33.92,10.56c-13.216,0-24.416-2.912-33.76-8.704c-15.424-9.28-23.488-25.536-24.512-48.672h170.464
				C512.16,289.739,511.52,274.411,509.856,263.851z M342.976,269.835c2.24-15.008,7.68-26.912,16.32-35.712
				c8.64-8.768,20.864-13.184,36.512-13.216c14.432,0,26.496,4.128,36.32,12.416c9.696,8.352,15.168,20.48,16.288,36.512H342.976z"
				/>
    </g>
  </symbol>
  <symbol id="envelope" viewBox="0 0 479.058 479.058">
    <g>
      <path d="m434.146 59.882h-389.234c-24.766 0-44.912 20.146-44.912 44.912v269.47c0 24.766 20.146 44.912 44.912 44.912h389.234c24.766 0 44.912-20.146 44.912-44.912v-269.47c0-24.766-20.146-44.912-44.912-44.912zm0 29.941c2.034 0 3.969.422 5.738 1.159l-200.355 173.649-200.356-173.649c1.769-.736 3.704-1.159 5.738-1.159zm0 299.411h-389.234c-8.26 0-14.971-6.71-14.971-14.971v-251.648l199.778 173.141c2.822 2.441 6.316 3.655 9.81 3.655s6.988-1.213 9.81-3.655l199.778-173.141v251.649c-.001 8.26-6.711 14.97-14.971 14.97z"/>
    </g>
  </symbol>
  <symbol id="heart" viewBox="0 -28 512.001 512">
    <g>
      <path d="m256 455.515625c-7.289062 0-14.316406-2.640625-19.792969-7.4375-20.683593-18.085937-40.625-35.082031-58.21875-50.074219l-.089843-.078125c-51.582032-43.957031-96.125-81.917969-127.117188-119.3125-34.644531-41.804687-50.78125-81.441406-50.78125-124.742187 0-42.070313 14.425781-80.882813 40.617188-109.292969 26.503906-28.746094 62.871093-44.578125 102.414062-44.578125 29.554688 0 56.621094 9.34375 80.445312 27.769531 12.023438 9.300781 22.921876 20.683594 32.523438 33.960938 9.605469-13.277344 20.5-24.660157 32.527344-33.960938 23.824218-18.425781 50.890625-27.769531 80.445312-27.769531 39.539063 0 75.910156 15.832031 102.414063 44.578125 26.191406 28.410156 40.613281 67.222656 40.613281 109.292969 0 43.300781-16.132812 82.9375-50.777344 124.738281-30.992187 37.398437-75.53125 75.355469-127.105468 119.308594-17.625 15.015625-37.597657 32.039062-58.328126 50.167969-5.472656 4.789062-12.503906 7.429687-19.789062 7.429687zm-112.96875-425.523437c-31.066406 0-59.605469 12.398437-80.367188 34.914062-21.070312 22.855469-32.675781 54.449219-32.675781 88.964844 0 36.417968 13.535157 68.988281 43.882813 105.605468 29.332031 35.394532 72.960937 72.574219 123.476562 115.625l.09375.078126c17.660156 15.050781 37.679688 32.113281 58.515625 50.332031 20.960938-18.253907 41.011719-35.34375 58.707031-50.417969 50.511719-43.050781 94.136719-80.222656 123.46875-115.617188 30.34375-36.617187 43.878907-69.1875 43.878907-105.605468 0-34.515625-11.605469-66.109375-32.675781-88.964844-20.757813-22.515625-49.300782-34.914062-80.363282-34.914062-22.757812 0-43.652344 7.234374-62.101562 21.5-16.441406 12.71875-27.894532 28.796874-34.609375 40.046874-3.453125 5.785157-9.53125 9.238282-16.261719 9.238282s-12.808594-3.453125-16.261719-9.238282c-6.710937-11.25-18.164062-27.328124-34.609375-40.046874-18.449218-14.265626-39.34375-21.5-62.097656-21.5zm0 0"/>
    </g>
  </symbol>
  <symbol id="arrow" viewBox="0 0 512 512">
    <g>
      <path d="M508.875,248.458l-160-160c-4.167-4.167-10.917-4.167-15.083,0c-4.167,4.167-4.167,10.917,0,15.083l141.792,141.792
			H10.667C4.771,245.333,0,250.104,0,256s4.771,10.667,10.667,10.667h464.917L333.792,408.458c-4.167,4.167-4.167,10.917,0,15.083
			c2.083,2.083,4.813,3.125,7.542,3.125c2.729,0,5.458-1.042,7.542-3.125l160-160C513.042,259.375,513.042,252.625,508.875,248.458z
			"/>
    </g>
  </symbol>
</svg>