<svg style="dispay: none;"
  xmlns="http://www.w3.org/2000/svg">
  <symbol id="twitter" viewBox="0 0 512 512">
    <g>
      <path d="M512,97.248c-19.04,8.352-39.328,13.888-60.48,16.576c21.76-12.992,38.368-33.408,46.176-58.016
			c-20.288,12.096-42.688,20.64-66.56,25.408C411.872,60.704,384.416,48,354.464,48c-58.112,0-104.896,47.168-104.896,104.992
			c0,8.32,0.704,16.32,2.432,23.936c-87.264-4.256-164.48-46.08-216.352-109.792c-9.056,15.712-14.368,33.696-14.368,53.056
			c0,36.352,18.72,68.576,46.624,87.232c-16.864-0.32-33.408-5.216-47.424-12.928c0,0.32,0,0.736,0,1.152
			c0,51.008,36.384,93.376,84.096,103.136c-8.544,2.336-17.856,3.456-27.52,3.456c-6.72,0-13.504-0.384-19.872-1.792
			c13.6,41.568,52.192,72.128,98.08,73.12c-35.712,27.936-81.056,44.768-130.144,44.768c-8.608,0-16.864-0.384-25.12-1.44
			C46.496,446.88,101.6,464,161.024,464c193.152,0,298.752-160,298.752-298.688c0-4.64-0.16-9.12-0.384-13.568
			C480.224,136.96,497.728,118.496,512,97.248z"/>
    </g>
  </symbol>
  <symbol id="facebook" viewBox="0 0 24 24">
    <g>
      <path d="m15.997 3.985h2.191v-3.816c-.378-.052-1.678-.169-3.192-.169-3.159 0-5.323 1.987-5.323 5.639v3.361h-3.486v4.266h3.486v10.734h4.274v-10.733h3.345l.531-4.266h-3.877v-2.939c.001-1.233.333-2.077 2.051-2.077z"/>
    </g>
  </symbol>
  <symbol id="google-plus" viewBox="0 0 96.669 96.669">
    <g>
      <path d="M50.91,55.189l-4.533-3.522c-1.38-1.144-3.27-2.656-3.27-5.422c0-2.778,1.889-4.544,3.527-6.18
			c5.279-4.157,10.557-8.581,10.557-17.903c0-9.586-6.031-14.629-8.923-17.022h7.795L64.244,0H39.459
			C32.658,0,22.856,1.608,15.68,7.533c-5.408,4.666-8.046,11.099-8.046,16.892c0,9.831,7.548,19.798,20.88,19.798
			c1.259,0,2.636-0.124,4.022-0.252c-0.623,1.515-1.252,2.777-1.252,4.917c0,3.905,2.006,6.299,3.774,8.567
			c-5.663,0.39-16.237,1.018-24.033,5.809c-7.424,4.415-9.684,10.84-9.684,15.377c0,9.334,8.8,18.028,27.045,18.028
			c21.636,0,33.089-11.971,33.089-23.823C61.477,64.139,56.447,59.854,50.91,55.189z M34.431,40.691
			c-10.824,0-15.727-13.992-15.727-22.434c0-3.288,0.623-6.682,2.763-9.333C23.486,6.4,27,4.762,30.281,4.762
			c10.434,0,15.846,14.118,15.846,23.197c0,2.271-0.251,6.296-3.144,9.207C40.96,39.187,37.574,40.691,34.431,40.691z
			 M34.555,91.387c-13.46,0-22.139-6.438-22.139-15.392c0-8.949,8.048-11.978,10.816-12.979c5.281-1.777,12.076-2.024,13.21-2.024
			c1.258,0,1.887,0,2.889,0.126c9.568,6.81,13.721,10.203,13.721,16.65C53.053,85.573,46.635,91.387,34.555,91.387z"/>
      <polygon points="82.679,40.499 82.679,27.894 76.455,27.894 76.455,40.499 63.869,40.499 63.869,46.793 76.455,46.793 
			76.455,59.477 82.679,59.477 82.679,46.793 95.328,46.793 95.328,40.499 		"/>
    </g>
  </symbol>
  <symbol id="dribbble" viewBox="0 0 24 24">
    <g>
      <path d="m16.354 23.17c.02-.006.039-.014.059-.021 12.215-4.853 8.836-23.149-4.413-23.149-6.649 0-12 5.42-12 12 0 8.327 8.434 14.269 16.354 11.17zm-11.073-3.111c.852-1.432 3.609-5.472 8.315-6.866.984 2.509 1.674 5.436 1.742 8.755-3.566 1.199-7.327.392-10.057-1.889zm11.532 1.263c-.131-3.189-.782-6.017-1.71-8.467 2.082-.325 4.492-.108 7.225.987-.581 3.261-2.666 6.002-5.515 7.48zm5.672-9.031c-3.01-1.131-5.663-1.272-7.959-.834-.355-.8-.728-1.569-1.123-2.277 3.523-1.407 5.605-3.122 6.537-4.03 1.645 1.904 2.622 4.369 2.545 7.141zm-3.61-8.209c-.848.807-2.845 2.437-6.26 3.77-1.674-2.648-3.464-4.516-4.598-5.562 3.628-1.494 7.812-.856 10.858 1.792zm-12.292-1.059c.856.753 2.735 2.561 4.548 5.357-2.49.802-5.612 1.391-9.409 1.474.604-2.894 2.408-5.346 4.861-6.831zm-5.051 8.337c4.25-.069 7.69-.74 10.409-1.648.376.659.733 1.377 1.076 2.123-4.735 1.508-7.694 5.401-8.827 7.159-1.828-2.04-2.836-4.702-2.658-7.634z"/>
    </g>
  </symbol>
  <symbol id="eye" viewBox="0 0 512 512">
    <g>
      <path d="m490.007 217.504-69.27-43.111c-48.764-30.351-105.73-46.393-164.737-46.393s-115.973 16.042-164.737 46.393l-69.27 43.111c-13.771 8.571-21.993 22.962-21.993 38.496s8.222 29.925 21.993 38.496l69.27 43.111c48.764 30.351 105.73 46.393 164.737 46.393s115.973-16.042 164.737-46.393l69.271-43.111c13.77-8.571 21.992-22.962 21.992-38.496s-8.222-29.925-21.993-38.496zm-234.007 118.496c-44.112 0-80-35.888-80-80s35.888-80 80-80 80 35.888 80 80-35.888 80-80 80zm-217.098-68.672c-4.386-2.73-6.902-6.859-6.902-11.328s2.516-8.598 6.901-11.328l69.27-43.111c23.989-14.93 50.218-25.8 77.467-32.629-25.38 20.549-41.638 51.943-41.638 87.068s16.258 66.519 41.638 87.069c-27.249-6.829-53.478-17.699-77.467-32.629zm434.197 0-69.27 43.111c-23.989 14.93-50.217 25.8-77.467 32.629 25.38-20.549 41.638-51.943 41.638-87.068s-16.258-66.519-41.638-87.069c27.249 6.829 53.478 17.699 77.467 32.629l69.269 43.111c4.386 2.73 6.902 6.86 6.902 11.329s-2.516 8.599-6.901 11.328z"/>
      <circle cx="256" cy="256" r="32"/>
    </g>
  </symbol>
</svg>